<?xml version="1.0" standalone="no"?><!DOCTYPE svg PUBLIC "-//W3C//DTD SVG 1.1//EN" "http://www.w3.org/Graphics/SVG/1.1/DTD/svg11.dtd"><svg t="1712590231653" class="icon" viewBox="0 0 1024 1024" version="1.1" xmlns="http://www.w3.org/2000/svg" p-id="4520" xmlns:xlink="http://www.w3.org/1999/xlink" width="40" height="40"><path d="M355.042 366.718c0-13.146 22.408-29.804 33.314-39.14-1.942-5.528-4.332-10.832-7.022-15.91-14.266 0.972-41.456 5.602-50.568-3.586-8.888-8.814-4.63-35.854-3.96-49.672a130.716 130.716 0 0 0-17.03-6.946c-9.262 10.158-25.022 32.416-37.572 32.416-12.548 0-28.384-22.258-37.646-32.416a130.716 130.716 0 0 0-17.03 6.946c0.672 13.818 5.004 40.858-3.884 49.746-9.114 9.112-36.376 4.556-50.568 3.51-2.69 5.078-5.08 10.384-7.022 15.91 10.906 9.336 33.388 25.994 33.388 39.14 0 13.518-23.006 30.174-34.734 39.512a115.16 115.16 0 0 0 5.976 15.088c14.94-1.79 43.324-5.752 52.96 3.958 9.934 9.936 5.602 38.544 3.436 53.856a115.33 115.33 0 0 0 14.266 6.048c9.262-12.474 26.816-35.704 40.858-35.704 14.118 0 31.596 23.23 40.858 35.704a115.488 115.488 0 0 0 14.268-6.048c-2.242-15.312-6.5-43.922 3.436-53.856 9.636-9.71 37.944-5.75 52.958-3.958a115.15 115.15 0 0 0 5.974-15.088c-11.724-9.334-34.656-25.992-34.656-39.51z m-82.836 37.348c-20.764 0-37.646-16.882-37.646-37.646 0-20.84 16.882-37.646 37.646-37.646a37.584 37.584 0 0 1 37.646 37.646c0 20.764-16.806 37.646-37.646 37.646z" fill="#2920BB" p-id="4521"></path><path d="M234.284 494.686l-5.544-1.932a123.936 123.936 0 0 1-15.256-6.472l-5.09-2.588 0.952-6.71c1.524-10.72 5.564-39.192-1.326-46.084-1.18-1.178-5.366-3.918-18.746-3.918-8.752 0-18.372 1.17-25.396 2.028l-7.91 0.952-2.47-5.176c-2.594-5.45-4.686-10.724-6.38-16.13l-1.644-5.228 7.826-6.206c8.43-6.606 28.158-22.084 28.158-30.534 0-7.624-17.348-22.008-25.688-28.92a375.308 375.308 0 0 1-4.882-4.092l-4.15-3.554 1.81-5.156c1.96-5.584 4.482-11.308 7.494-17.004l2.444-4.614 5.206 0.384c2.294 0.17 4.92 0.428 7.754 0.708 6.364 0.626 13.582 1.338 20.274 1.338 11.788 0 15.324-2.268 16.302-3.244 4.66-4.696 2.996-25.1 2.19-34.908-0.266-3.244-0.504-6.24-0.63-8.796l-0.254-5.232 4.696-2.316a139.718 139.718 0 0 1 18.064-7.376l4.92-1.62 3.484 3.828c1.826 1.996 3.89 4.446 6.13 7.106 6.214 7.366 19.136 22.696 25.61 22.696 6.412 0 19.302-15.296 25.496-22.646 2.262-2.678 4.342-5.146 6.178-7.158l3.49-3.824 4.914 1.622a139.706 139.706 0 0 1 18.064 7.37l4.696 2.316-0.254 5.234c-0.124 2.554-0.364 5.544-0.63 8.786-0.8 9.8-2.464 30.192 2.2 34.856 0.988 0.998 4.518 3.27 16.282 3.27 6.542 0 13.618-0.682 19.864-1.284 3.036-0.292 5.85-0.562 8.294-0.728l5.174-0.354 2.428 4.586c3.01 5.696 5.532 11.42 7.494 17.004l1.81 5.156-4.15 3.554c-1.45 1.246-3.104 2.618-4.882 4.092-8.34 6.91-25.688 21.296-25.688 28.92 0 8.45 19.728 23.928 28.158 30.534l7.826 6.206-1.644 5.228a121.286 121.286 0 0 1-6.39 16.136l-2.47 5.168-7.972-0.956c-7.03-0.852-16.656-2.02-25.382-2.02-13.384 0-17.57 2.74-18.752 3.918-7.004 7.006-2.776 35.814-1.186 46.662l0.838 5.68-5.054 3.04a124.376 124.376 0 0 1-15.256 6.472l-5.544 1.932-3.5-4.712c-5.974-8.042-24.16-32.518-34.45-32.518-10.302 0-28.47 24.474-34.444 32.516l-3.506 4.712z m37.946-53.204c14.814 0 29.656 15.85 43.644 34.146 0.926-0.38 1.846-0.766 2.756-1.168-2.954-21.742-4.274-44.122 6.458-54.854 5.782-5.788 15.61-8.598 30.046-8.598 8.222 0 16.79 0.886 23.738 1.708 0.514-1.232 0.998-2.46 1.462-3.69-17.67-13.904-33.3-27.628-33.3-42.34 0-15.13 18.184-30.21 31.466-41.218l0.39-0.326a109.694 109.694 0 0 0-2.236-5.034c-0.842 0.078-1.706 0.162-2.59 0.248-6.604 0.636-14.086 1.358-21.398 1.358-13.432 0-22.198-2.532-27.596-7.966-9.874-9.872-8.174-30.7-6.806-47.434l0.24-2.948a120.234 120.234 0 0 0-6.246-2.54c-0.744 0.876-1.518 1.794-2.314 2.738-10.634 12.62-23.874 28.324-37.71 28.324-13.9 0-27.164-15.732-37.82-28.372-0.786-0.928-1.544-1.83-2.278-2.694a126.008 126.008 0 0 0-6.24 2.542l0.24 2.956c1.368 16.728 3.074 37.546-6.796 47.486-5.424 5.426-14.196 7.942-27.618 7.942-7.482 0-15.112-0.752-21.84-1.416l-2.074-0.202c-0.796 1.68-1.54 3.352-2.226 5.012 0.13 0.106 0.26 0.216 0.39 0.326 13.28 11.008 31.466 26.088 31.466 41.218 0 14.714-15.632 28.436-33.3 42.34 0.458 1.228 0.946 2.454 1.462 3.686 6.932-0.822 15.47-1.706 23.68-1.706 14.43 0 24.258 2.81 30.04 8.598 10.796 10.792 9.48 32.614 6.506 54.846 0.916 0.404 1.836 0.792 2.772 1.172 13.97-18.29 28.812-34.14 43.632-34.14z" fill="#2920BB" p-id="4522"></path><path d="M272.204 412.052c-25.162 0-45.63-20.47-45.63-45.632s20.468-45.636 45.63-45.636 45.634 20.472 45.634 45.636c0 25.162-20.472 45.632-45.634 45.632z m0-75.292c-16.354 0-29.656 13.306-29.656 29.66s13.302 29.658 29.656 29.658 29.66-13.304 29.66-29.658-13.306-29.66-29.66-29.66z" fill="#2920BB" p-id="4523"></path><path d="M74.918 789.578c-21.346 0-38.712-17.366-38.712-38.712V98.582c0-21.374 17.366-38.764 38.712-38.764h829.068c8.892 0 17.214 3.45 23.428 9.714 6.294 6.246 9.744 14.568 9.744 23.46v156.04a218.396 218.396 0 0 0-14.75-10.97V87.668H55.484v610.006h516.76v91.904H74.918z" fill="#2920BB" p-id="4524"></path><path d="M737.85 825.786H74.916C33.608 825.786 0 792.178 0 750.87V98.582c0-41.28 33.608-74.864 74.916-74.864h823.852c41.106 0 74.546 33.418 74.546 74.492V300.28l-14.164-17.296a207.682 207.682 0 0 0-21.996-22.968 204.366 204.366 0 0 0-24.476-18.988 192.672 192.672 0 0 0-22.012-12.882l-4.414-2.208V123.824H91.64v537.748h488.548v148.188h165.65v15.974l-7.988 0.052zM74.916 39.692c-32.5 0-58.942 26.418-58.942 58.89v652.288c0 32.5 26.442 58.942 58.942 58.942h489.296v-132.266H75.664V107.848h826.562v108.282a207.56 207.56 0 0 1 19.338 11.624 219.404 219.404 0 0 1 26.28 20.392 225.75 225.75 0 0 1 9.496 9.022V98.21c0-32.266-26.276-58.518-58.572-58.518H74.916z" fill="#2920BB" p-id="4525"></path><path d="M640.736 940.54H332.638l51.812-124.336v-6.39l7.988-0.052h196.43v6.438l51.868 124.34z m-284.138-15.976h260.166l-41.23-98.83h-177.75l-41.186 98.83z" fill="#2920BB" p-id="4526"></path><path d="M378.9 909.676l28.788-69.064h157.974l28.79 69.064z" fill="#2920BB" p-id="4527"></path><path d="M745.838 1000.282H209.424v-75.716h536.414v75.716z m-520.44-15.974h504.466V940.54H225.398v43.768z" fill="#2920BB" p-id="4528"></path><path d="M240.268 955.392h492.82v14.052h-492.82z" fill="#2920BB" p-id="4529"></path><path d="M28.594 984.308h709.256v15.974H28.594z" fill="#2920BB" p-id="4530"></path><path d="M486.676 744.554m-36.07 0a36.07 36.07 0 1 0 72.14 0 36.07 36.07 0 1 0-72.14 0Z" fill="#2920BB" p-id="4531"></path><path d="M486.676 788.612c-24.29 0-44.054-19.766-44.054-44.06 0-24.29 19.766-44.054 44.054-44.054 24.294 0 44.06 19.766 44.06 44.054 0 24.294-19.766 44.06-44.06 44.06z m0-72.14c-15.486 0-28.08 12.594-28.08 28.08s12.594 28.086 28.08 28.086 28.086-12.6 28.086-28.086-12.6-28.08-28.086-28.08z" fill="#2920BB" p-id="4532"></path><path d="M1024 992.3h-15.974V419.054c0-117.952-95.96-213.912-213.912-213.912s-213.912 95.96-213.912 213.912v92.234l-79.98 150.298h79.98v148.184h165.646v182.53h-15.974v-166.556h-165.646V677.56h-90.6l90.6-170.256v-88.252c0-126.76 103.126-229.886 229.886-229.886S1024 292.294 1024 419.054V992.3z" fill="#2920BB" p-id="4533"></path><path d="M794.136 223.77c-107.72 0-195.312 87.592-195.312 195.26v96.91l-3.088 5.858-64.484 121.138h67.572v148.188h165.654v201.17h224.918V419.028c0-107.666-87.594-195.258-195.26-195.258z m113.57 216.748c-15.022-1.742-43.326-5.732-53.05 3.92-9.942 9.942-5.588 38.608-3.338 53.92a108.34 108.34 0 0 1-14.296 6.024c-9.29-12.482-26.778-35.706-40.858-35.706s-31.568 23.222-40.858 35.706a107.96 107.96 0 0 1-14.296-6.024c2.176-15.312 6.532-43.978-3.412-53.92-9.652-9.652-38.028-5.66-52.978-3.92a118.43 118.43 0 0 1-5.95-15.096c11.756-9.288 34.69-25.98 34.69-39.552 0-13.064-22.426-29.754-33.31-39.044 1.886-5.588 4.282-10.886 6.966-15.966 14.224 1.088 41.44 5.66 50.582-3.484 8.854-8.926 4.572-35.924 3.92-49.712 5.442-2.758 11.104-5.008 16.982-6.966 9.29 10.16 25.11 32.366 37.664 32.366 12.482 0 28.304-22.206 37.592-32.366 5.878 1.958 11.54 4.208 16.982 6.966-0.654 13.79-4.934 40.786 3.92 49.64 9.144 9.216 36.358 4.572 50.656 3.556 2.686 5.08 5.08 10.378 6.966 15.966-10.886 9.29-33.31 25.98-33.31 39.044 0 13.572 22.932 30.262 34.69 39.552a118.924 118.924 0 0 1-5.954 15.096z" fill="#2920BB" p-id="4534"></path><path d="M878.974 385.91c0-13.146 22.408-29.804 33.314-39.14-1.942-5.528-4.332-10.832-7.022-15.91-14.266 0.972-41.456 5.602-50.568-3.586-8.888-8.814-4.63-35.854-3.958-49.672a130.716 130.716 0 0 0-17.03-6.946c-9.262 10.158-25.022 32.416-37.572 32.416-12.548 0-28.384-22.258-37.646-32.416a130.716 130.716 0 0 0-17.03 6.946c0.672 13.818 5.004 40.858-3.884 49.746-9.114 9.112-36.376 4.556-50.568 3.51-2.69 5.078-5.08 10.384-7.022 15.91 10.906 9.336 33.388 25.994 33.388 39.14 0 13.518-23.006 30.174-34.734 39.512a115.16 115.16 0 0 0 5.976 15.088c14.94-1.79 43.324-5.752 52.96 3.958 9.934 9.936 5.602 38.544 3.436 53.856a115.33 115.33 0 0 0 14.266 6.048c9.262-12.474 26.816-35.704 40.858-35.704 14.118 0 31.596 23.23 40.858 35.704a115.488 115.488 0 0 0 14.268-6.048c-2.242-15.312-6.5-43.922 3.436-53.856 9.636-9.71 37.944-5.75 52.958-3.958a115.15 115.15 0 0 0 5.974-15.088c-11.726-9.334-34.658-25.99-34.658-39.51z m-82.838 37.348c-20.764 0-37.646-16.882-37.646-37.646 0-20.84 16.882-37.646 37.646-37.646a37.584 37.584 0 0 1 37.646 37.646c0.002 20.766-16.804 37.646-37.646 37.646z" fill="#2920BB" p-id="4535"></path><path d="M834.108 513.878l-3.5-4.714c-5.97-8.042-24.144-32.516-34.444-32.516s-28.476 24.474-34.444 32.516l-3.5 4.714-5.544-1.932a123.936 123.936 0 0 1-15.256-6.472l-5.09-2.588 0.952-6.71c1.524-10.72 5.564-39.192-1.332-46.084-1.18-1.18-5.362-3.92-18.74-3.92-8.752 0-18.372 1.172-25.392 2.03l-7.914 0.952-2.47-5.18a122.452 122.452 0 0 1-6.38-16.128l-1.644-5.228 7.82-6.2c8.43-6.61 28.164-22.09 28.164-30.542 0-7.626-17.362-22.016-25.704-28.932a406.338 406.338 0 0 1-4.872-4.076l-4.154-3.556 1.814-5.164c1.976-5.618 4.504-11.338 7.504-16.998l2.444-4.608 5.2 0.382c2.298 0.17 4.93 0.428 7.774 0.708 6.36 0.626 13.566 1.336 20.26 1.336 11.778 0 15.314-2.264 16.292-3.24 4.664-4.698 2.996-25.1 2.194-34.904-0.27-3.248-0.51-6.246-0.634-8.804l-0.254-5.234 4.7-2.32a140.5 140.5 0 0 1 18.06-7.366l4.914-1.622 3.49 3.824c1.826 2 3.894 4.452 6.136 7.114 6.214 7.364 19.136 22.69 25.61 22.69 6.406 0 19.302-15.3 25.5-22.654 2.256-2.676 4.336-5.14 6.168-7.15l3.484-3.824 4.92 1.62a140.626 140.626 0 0 1 18.064 7.37l4.696 2.316-0.254 5.234c-0.124 2.55-0.364 5.538-0.63 8.774-0.8 9.802-2.464 30.202 2.204 34.872 0.988 0.996 4.514 3.268 16.282 3.268 6.532 0 13.608-0.682 19.848-1.284 3.042-0.292 5.856-0.562 8.304-0.728l5.168-0.352 2.428 4.578c3 5.66 5.528 11.38 7.504 16.998l1.814 5.164-4.154 3.556c-1.45 1.24-3.1 2.608-4.872 4.076-8.34 6.916-25.704 21.306-25.704 28.932 0 8.452 19.734 23.932 28.164 30.542l7.82 6.2-1.644 5.228a122.84 122.84 0 0 1-6.38 16.128l-2.47 5.176-7.982-0.956c-7.026-0.852-16.65-2.022-25.382-2.022-13.384 0-17.566 2.74-18.746 3.918-7 7-2.782 35.776-1.196 46.61l0.832 5.678-5.044 3.096a124.376 124.376 0 0 1-15.256 6.472l-5.546 1.936z m-37.944-53.204c14.826 0 29.66 15.85 43.638 34.144 0.93-0.378 1.846-0.766 2.756-1.164-2.948-21.768-4.264-44.134 6.464-54.86 5.782-5.782 15.61-8.596 30.04-8.596 8.222 0 16.79 0.89 23.738 1.71a105.34 105.34 0 0 0 1.462-3.69c-17.67-13.904-33.3-27.63-33.3-42.344 0-15.132 18.194-30.218 31.486-41.23l0.374-0.312a109.136 109.136 0 0 0-2.242-5.034l-2.606 0.25c-6.598 0.636-14.076 1.358-21.378 1.358-13.432 0-22.198-2.532-27.596-7.966-9.874-9.878-8.174-30.708-6.812-47.448l0.24-2.936a122.24 122.24 0 0 0-6.24-2.542c-0.744 0.876-1.514 1.788-2.308 2.73-10.64 12.626-23.878 28.334-37.716 28.334-13.9 0-27.164-15.73-37.82-28.368-0.786-0.928-1.544-1.83-2.278-2.694a125.06 125.06 0 0 0-6.246 2.54l0.24 2.962c1.372 16.726 3.074 37.542-6.796 47.484-5.424 5.42-14.19 7.938-27.606 7.938-7.478 0-15.1-0.748-21.824-1.412l-2.096-0.206c-0.796 1.674-1.54 3.346-2.23 5.01l0.374 0.312c13.292 11.014 31.486 26.098 31.486 41.23 0 14.714-15.632 28.438-33.3 42.344 0.458 1.228 0.946 2.452 1.462 3.686 6.932-0.822 15.47-1.708 23.68-1.708 14.424 0 24.252 2.814 30.036 8.598 10.8 10.796 9.484 32.62 6.51 54.85 0.916 0.402 1.836 0.792 2.772 1.172 13.974-18.292 28.81-34.142 43.636-34.142z" fill="#2920BB" p-id="4536"></path><path d="M796.138 431.246c-25.162 0-45.636-20.472-45.636-45.634s20.472-45.632 45.636-45.632c25.162 0 45.634 20.47 45.634 45.632s-20.472 45.634-45.634 45.634z m0-75.294c-16.354 0-29.66 13.304-29.66 29.658s13.306 29.66 29.66 29.66 29.66-13.306 29.66-29.66-13.308-29.658-29.66-29.658zM408.838 463.892h107.582v15.974h-107.582z" fill="#2920BB" p-id="4537"></path><path d="M484.232 510.408l-10.472-12.064 30.586-26.56-30.68-27.492 10.66-11.898 44.168 39.578zM443.916 274.826h133.608v15.974h-133.608z" fill="#2920BB" p-id="4538"></path><path d="M476.01 322.294l-44.168-39.576 44.262-38.434 10.474 12.058-30.586 26.564 30.678 27.49z" fill="#2920BB" p-id="4539"></path></svg>